<svg width="32" height="33" viewBox="0 0 32 33" fill="none" xmlns="http://www.w3.org/2000/svg">
<g id="LinkedinLogo" clip-path="url(#clip0_0_107)">
<path id="Vector" d="M27 4.34644H5C4.44772 4.34644 4 4.79415 4 5.34644V27.3464C4 27.8987 4.44772 28.3464 5 28.3464H27C27.5523 28.3464 28 27.8987 28 27.3464V5.34644C28 4.79415 27.5523 4.34644 27 4.34644Z" stroke="#1F1F1F" stroke-width="2" stroke-linecap="round" stroke-linejoin="round"/>
<path id="Vector_2" d="M15 14.3464V22.3464" stroke="#1F1F1F" stroke-width="2" stroke-linecap="round" stroke-linejoin="round"/>
<path id="Vector_3" d="M11 14.3464V22.3464" stroke="#1F1F1F" stroke-width="2" stroke-linecap="round" stroke-linejoin="round"/>
<path id="Vector_4" d="M15 17.8464C15 16.9182 15.3687 16.0279 16.0251 15.3716C16.6815 14.7152 17.5717 14.3464 18.5 14.3464C19.4283 14.3464 20.3185 14.7152 20.9749 15.3716C21.6313 16.0279 22 16.9182 22 17.8464V22.3464" stroke="#1F1F1F" stroke-width="2" stroke-linecap="round" stroke-linejoin="round"/>
<path id="Vector_5" d="M11 12.3464C11.8284 12.3464 12.5 11.6749 12.5 10.8464C12.5 10.018 11.8284 9.34644 11 9.34644C10.1716 9.34644 9.5 10.018 9.5 10.8464C9.5 11.6749 10.1716 12.3464 11 12.3464Z" fill="#1F1F1F"/>
</g>
<defs>
<clipPath id="clip0_0_107">
<rect width="32" height="32" fill="white" transform="translate(0 0.346436)"/>
</clipPath>
</defs>
</svg>
