<svg width="32" height="33" viewBox="0 0 32 33" fill="none" xmlns="http://www.w3.org/2000/svg">
<g id="RedditLogo" clip-path="url(#clip0_0_79)">
<path id="Vector" d="M23 6.33081C24.1046 6.33081 25 5.43538 25 4.33081C25 3.22624 24.1046 2.33081 23 2.33081C21.8954 2.33081 21 3.22624 21 4.33081C21 5.43538 21.8954 6.33081 23 6.33081Z" stroke="#1F1F1F" stroke-width="2" stroke-linecap="round" stroke-linejoin="round"/>
<path id="Vector_2" d="M16 9.33081L17 3.33081L21.0362 3.95206" stroke="#1F1F1F" stroke-width="2" stroke-linecap="round" stroke-linejoin="round"/>
<path id="Vector_3" d="M7.42625 11.5658C9.715 10.1746 12.715 9.33081 16 9.33081C19.285 9.33081 22.285 10.1746 24.5738 11.5658C24.8361 11.2059 25.1752 10.909 25.5666 10.6965C25.958 10.484 26.3917 10.3613 26.8364 10.3373C27.2811 10.3134 27.7255 10.3887 28.1375 10.5578C28.5494 10.7269 28.9186 10.9857 29.2181 11.3152C29.5176 11.6448 29.74 12.0369 29.8691 12.4631C29.9983 12.8893 30.0309 13.3388 29.9646 13.7792C29.8984 14.2196 29.735 14.6397 29.4862 15.009C29.2374 15.3784 28.9095 15.6877 28.5263 15.9146C28.8379 16.6821 28.9987 17.5024 29 18.3308C29 23.3008 23.18 27.3308 16 27.3308C8.82 27.3308 3 23.3008 3 18.3308C3.0013 17.5024 3.16214 16.6821 3.47375 15.9146C3.09054 15.6877 2.76264 15.3784 2.51384 15.009C2.26504 14.6397 2.1016 14.2196 2.03536 13.7792C1.96912 13.3388 2.00175 12.8893 2.13088 12.4631C2.26002 12.0369 2.48241 11.6448 2.78193 11.3152C3.08145 10.9857 3.45058 10.7269 3.86254 10.5578C4.27449 10.3887 4.71894 10.3134 5.16361 10.3373C5.60829 10.3613 6.04205 10.484 6.43342 10.6965C6.82478 10.909 7.16393 11.2059 7.42625 11.5658Z" stroke="#1F1F1F" stroke-width="2" stroke-linecap="round" stroke-linejoin="round"/>
<path id="Vector_4" d="M11 18.3308C12.1046 18.3308 13 17.4354 13 16.3308C13 15.2262 12.1046 14.3308 11 14.3308C9.89543 14.3308 9 15.2262 9 16.3308C9 17.4354 9.89543 18.3308 11 18.3308Z" fill="#1F1F1F"/>
<path id="Vector_5" d="M21 18.3308C22.1046 18.3308 23 17.4354 23 16.3308C23 15.2262 22.1046 14.3308 21 14.3308C19.8954 14.3308 19 15.2262 19 16.3308C19 17.4354 19.8954 18.3308 21 18.3308Z" fill="#1F1F1F"/>
<path id="Vector_6" d="M20 22.3308C18.7689 22.9874 17.3952 23.3308 16 23.3308C14.6048 23.3308 13.2311 22.9874 12 22.3308" stroke="#1F1F1F" stroke-width="2" stroke-linecap="round" stroke-linejoin="round"/>
</g>
<defs>
<clipPath id="clip0_0_79">
<rect width="32" height="32" fill="white" transform="translate(0 0.330811)"/>
</clipPath>
</defs>
</svg>
