<svg width="32" height="33" viewBox="0 0 32 33" fill="none" xmlns="http://www.w3.org/2000/svg">
<g id="TiktokLogo" clip-path="url(#clip0_0_95)">
<path id="Vector" d="M21 13.1433C23.0387 14.6107 25.4881 15.3981 28 15.3933V10.3933C26.1435 10.3933 24.363 9.65581 23.0503 8.34306C21.7375 7.0303 21 5.24983 21 3.39331H16V19.8933C15.9997 20.5196 15.8314 21.1343 15.5126 21.6734C15.1938 22.2125 14.7362 22.6562 14.1875 22.9581C13.6389 23.2601 13.0192 23.4093 12.3932 23.3902C11.7672 23.3711 11.1578 23.1844 10.6285 22.8495C10.0993 22.5146 9.66962 22.0439 9.3843 21.4863C9.09898 20.9288 8.96849 20.3049 9.00643 19.6798C9.04437 19.0547 9.24936 18.4511 9.60002 17.9322C9.95067 17.4133 10.4341 16.998 11 16.7296V11.3933C7.02125 12.1021 4 15.7108 4 19.8933C4 22.1477 4.89553 24.3097 6.48959 25.9037C8.08365 27.4978 10.2457 28.3933 12.5 28.3933C14.7543 28.3933 16.9163 27.4978 18.5104 25.9037C20.1045 24.3097 21 22.1477 21 19.8933V13.1433Z" stroke="#1F1F1F" stroke-width="2" stroke-linecap="round" stroke-linejoin="round"/>
</g>
<defs>
<clipPath id="clip0_0_95">
<rect width="32" height="32" fill="white" transform="translate(0 0.393311)"/>
</clipPath>
</defs>
</svg>
