<svg width="32" height="33" viewBox="0 0 32 33" fill="none" xmlns="http://www.w3.org/2000/svg">
<g id="YoutubeLogo" clip-path="url(#clip0_0_89)">
<path id="Vector" d="M20 16.4558L14 12.4558V20.4558L20 16.4558Z" stroke="#1F1F1F" stroke-width="2" stroke-linecap="round" stroke-linejoin="round"/>
<path id="Vector_2" d="M3 16.4558C3 20.1946 3.38375 22.3871 3.67625 23.5146C3.7536 23.8212 3.90258 24.1052 4.11096 24.3431C4.31935 24.5811 4.58119 24.7662 4.875 24.8833C9.065 26.4996 16 26.4558 16 26.4558C16 26.4558 22.935 26.4996 27.125 24.8833C27.4197 24.7668 27.6826 24.582 27.8919 24.344C28.1012 24.1061 28.2509 23.8218 28.3288 23.5146C28.6213 22.3896 29.005 20.1946 29.005 16.4558C29.005 12.7171 28.6213 10.5246 28.3288 9.39705C28.2518 9.08871 28.1024 8.80315 27.8931 8.56403C27.6838 8.32491 27.4205 8.13912 27.125 8.02205C22.935 6.41205 16 6.4558 16 6.4558C16 6.4558 9.065 6.41205 4.875 8.0283C4.57954 8.14537 4.31623 8.33116 4.1069 8.57028C3.89756 8.8094 3.74822 9.09496 3.67125 9.40331C3.38375 10.5233 3 12.7171 3 16.4558Z" stroke="#1F1F1F" stroke-width="2" stroke-linecap="round" stroke-linejoin="round"/>
</g>
<defs>
<clipPath id="clip0_0_89">
<rect width="32" height="32" fill="white" transform="translate(0 0.455811)"/>
</clipPath>
</defs>
</svg>
