<svg width="30" height="119" viewBox="0 0 30 119" fill="none" xmlns="http://www.w3.org/2000/svg">
<path id="Lithuania" d="M21.7126 2.76449L22.1285 3.09036V4.1766L22.3364 5.69732L22.7523 8.30428L22.9602 10.5854L23.1681 13.3009L23.48 17.2114V17.8631L23.584 19.7097L23.688 21.4477L23.7919 23.1857V24.815L23.8959 27.422V29.9203L23.7919 31.8755L23.688 36.0032L23.48 38.936V40.1309L23.2721 42.9551L22.9602 47.0828V47.6259L22.8562 49.2552L22.7523 50.4501L22.5443 51.7536L22.3364 54.1433L22.0245 56.0985L21.5047 59.14L21.0888 60.9866L20.8809 61.8555L20.569 63.5935L19.9451 66.7436L19.7372 67.7212L19.3213 69.3505L19.2174 70.2195L18.9055 71.9575L18.8015 72.2834L18.4896 73.5868V73.9127L17.9698 76.4111L17.346 78.5835L16.6182 81.5163L15.8904 83.9061L15.7864 84.3406L15.1626 86.0785L14.7468 87.2734L14.5388 88.1424L14.123 89.2286L13.7071 90.6407L12.9793 92.4873L12.5634 93.7908L11.8357 95.4201L11.5238 96.5064L10.796 98.2443L10.2762 99.5478L9.96426 100.308L9.34045 102.046L8.82061 103.241L8.19681 104.87L7.36507 106.717L6.84523 107.912L6.11745 109.541L5.59762 110.627L5.28571 111.496L4.55794 112.908L3.83017 114.429L3.20636 115.624L2.68652 116.602L2.99843 116.71L3.93413 116.928L6.84523 117.471L7.2611 116.602V116.059L7.46903 115.733L7.98887 115.298L9.13252 114.646L9.23648 114.321L8.71665 112.908L8.82061 112.474L9.02855 111.931L9.86029 111.496L10.2762 111.062H10.4841L10.1722 110.953L10.2762 110.302L10.1722 110.193V109.867L10.4841 109.107L11.2119 108.129L12.0436 107.151L12.3555 106.717L12.7714 106.5L14.019 106.174L14.4349 105.957L14.6428 105.739L14.9547 105.631L15.1626 105.413L15.5785 105.196L16.2023 104.653H16.3063L16.6182 104.327L17.138 103.784V103.675L16.8261 103.458L16.6182 103.241L16.4102 102.481V101.503L17.138 99.765L17.346 99.4392L17.4499 98.8961L17.346 98.4616L16.6182 97.484L16.5142 97.1581L16.7222 96.5064L16.8261 95.4201L16.7222 95.0943L17.0341 94.4425L18.1777 93.2477L18.4896 93.0304L18.5936 92.7045L18.9055 92.3787L19.0094 91.7269L19.8412 90.6407L20.1531 90.0976L20.0491 89.7717L19.6332 89.6631L19.4253 89.4458L19.3213 88.9027L19.6332 88.251L20.1531 87.5992L20.569 87.382H20.465L21.0888 86.7303L21.2967 86.6216L21.4007 86.2958L21.6086 86.1871L21.9205 85.7526H22.1285L22.2324 85.4268L21.6086 84.8837L21.4007 84.2319L21.1928 84.4492L20.9848 84.1233L21.0888 83.6888H21.1928L21.9205 83.0371L22.3364 82.8198L22.7523 82.494L22.8562 82.2767L23.2721 81.9508L23.3761 81.7336L23.7919 81.5163L24.5197 80.8646L24.2078 80.1042V79.7784V79.4525L22.4404 77.0628L22.1285 76.8455L21.6086 76.3024V75.9766L22.0245 75.6507L22.1285 75.3248V74.999L22.0245 74.3472L22.1285 74.13L22.5443 73.4782L22.7523 73.0437V72.2834L22.8562 71.9575L22.7523 71.523L23.0642 70.654L23.3761 70.2195L23.48 69.8937L23.584 69.1333L23.48 68.5902L23.688 67.8298L23.9999 66.635V66.3091L24.4158 65.1142L25.5594 63.5935L25.4554 63.0504L25.1435 62.8331L25.0396 62.29V61.6383L24.8316 61.2038V60.5521L25.0396 59.6831V58.9227L25.2475 57.8365L25.7673 56.8589L25.3515 56.4244L25.2475 56.3158L25.1435 55.1209L25.3515 54.5778V53.926L25.5594 52.8398H25.7673L25.6634 52.5139L25.7673 51.9708L25.6634 51.8622V51.3191L25.5594 51.1018L25.7673 50.6673V50.1242L25.9753 49.7984L26.1832 49.5811H26.0792L26.3911 48.8207L26.4951 48.6035L26.703 48.0604L26.5991 47.8431L26.911 47.5173L27.0149 47.0828H26.703V46.7569H27.1189L26.807 45.8879V45.4534L27.0149 44.6931L26.911 44.3672V43.9327L27.0149 42.7378V41.9775L27.1189 41.7602L27.3268 40.9999L27.2229 40.5654L27.0149 40.3481L26.911 40.1309L27.0149 39.3705V38.5015L27.2229 37.8498L27.3268 37.7412L27.6388 36.9808L27.4308 36.5463L27.3268 35.8946L27.2229 35.5687V34.4825L27.7427 33.6135L27.8467 32.6359L27.9507 32.2014L28.0546 31.3324L27.9507 30.6807L27.7427 30.572L27.6388 29.9203L27.5348 29.8117V29.4858L27.6388 28.9427V28.5082L27.5348 28.1823L27.6388 27.8565V26.7702V26.4444L27.5348 26.3357V25.0323L27.3268 24.5978L27.4308 23.946H27.3268V23.1857V22.8598V21.4477L27.2229 20.6873H27.1189L27.0149 20.1442L27.1189 18.9494L27.3268 17.5373L27.5348 16.8855L27.6388 16.7769V16.2338L27.8467 15.3648V14.3872H27.7427L27.6388 13.8441L27.7427 13.7354L27.6388 13.4096L26.911 11.6716L26.1832 10.1509L25.9753 9.93363L25.8713 9.49913L25.0396 7.65254L24.5197 6.78355L24.3118 6.13181L23.584 4.93696L23.2721 4.1766V3.7421H23.0642L22.6483 3.41623L21.7126 2.76449ZM21.7126 2.76449L20.465 2.11275L19.7372 1.89551L20.361 2.00413L21.7126 2.76449Z" stroke="url(#paint0_linear_74_265)" stroke-width="2.5"/>
<defs>
<linearGradient id="paint0_linear_74_265" x1="15.4724" y1="-44.9128" x2="15.4724" y2="158.915" gradientUnits="userSpaceOnUse">
<stop stop-color="#00D4E4"/>
<stop offset="0.78125" stop-color="#1F59EE"/>
</linearGradient>
</defs>
</svg>
